<svg width="63" height="36" viewBox="0 0 63 36" fill="none" xmlns="http://www.w3.org/2000/svg">
<path d="M25.9574 19.799C23.4294 23.1742 21.2338 22.346 19.4685 19.0035C18.7221 19.7636 17.9131 20.4582 17.0522 21.0848C15.1889 22.2534 13.1921 21.1583 13.0696 18.9409C13.026 18.1209 13.0696 17.2873 13.0314 16.4537C12.9551 16.1595 12.8298 15.8844 12.6582 15.6338C12.3776 15.7754 11.9745 15.8463 11.8382 16.0751C11.5168 16.6744 11.2389 17.2982 11.0128 17.9384C10.6832 18.7284 10.3917 19.5429 10.043 20.3111C9.68618 21.1011 8.81446 21.5206 7.97271 21.3109C7.1364 21.2291 6.49895 20.5236 6.50712 19.6818C6.44447 18.6194 6.56433 17.5434 6.50712 16.4755C6.43902 16.1241 6.32188 15.7809 6.15843 15.4622C5.8724 15.6992 5.46106 15.8735 5.31395 16.1759C4.75551 17.3881 4.25699 18.6984 3.69855 19.9406C3.52965 20.3656 3.29537 20.7606 3.00117 21.1093C2.40186 21.793 1.36124 21.8639 0.677486 21.2646C0.399625 21.0221 0.21166 20.6898 0.143556 20.3275C0.0917979 20.1504 0.0591083 19.9706 0.0509359 19.7881C0.0509359 17.3009 -0.0307879 14.7675 0.0127981 12.2559C0.0345912 11.5884 0.252522 10.9401 0.6339 10.3926C1.03162 9.87769 1.59007 9.50721 2.21934 9.33559C3.17551 9.07952 3.64951 9.53445 3.6931 10.5778C3.73124 11.3787 3.6931 12.1878 3.6931 12.9941L4.10989 13.1112C4.41499 12.8143 4.69285 12.4929 4.94347 12.1469C5.46651 11.2888 5.91871 10.3817 6.44174 9.51811C6.8204 8.73628 7.71391 8.35218 8.54205 8.61097C9.35656 8.79894 9.89594 9.57804 9.78425 10.4062V13.1031L10.1384 13.2148C10.389 12.9886 10.626 12.7435 10.8412 12.482C11.5876 11.5939 12.2823 10.6541 13.0532 9.79052C13.3747 9.42276 13.7778 9.13401 14.2273 8.94604C15.129 8.50473 16.2132 8.87794 16.6545 9.77962C16.8234 10.1229 16.8779 10.5097 16.8125 10.8856C16.6872 12.689 16.5755 14.4896 16.4774 16.293C16.4747 16.6199 16.4911 16.9495 16.5265 17.2737C17.8695 16.8406 18.8529 15.6855 19.0681 14.2908C19.1607 12.8034 19.3405 11.3242 19.6075 9.85862C19.7491 8.97056 20.4819 8.29225 21.3781 8.22415C22.1818 8.05797 23.0099 8.3767 23.4921 9.04411C24.0369 9.82593 24.0587 10.8584 23.5411 11.6593C22.7947 12.9015 22.8437 14.2499 23.0126 15.5793C23.0943 16.1623 23.4212 16.6798 23.9089 17.0095C24.5872 17.3391 25.1511 16.7425 25.418 16.1459C25.8948 14.9255 26.3115 13.6806 26.6602 12.4166C26.9217 11.5394 27.028 10.6132 27.2813 9.74421C27.6654 8.53197 28.5235 7.99804 29.556 8.24049C30.6484 8.51018 31.3512 9.57259 31.1714 10.684C31.0978 11.3051 30.8554 11.8636 30.76 12.4683C30.4604 14.2962 30.2016 16.1296 29.9074 18.061C31.313 17.6197 32.4299 17.241 33.5741 16.9359C34.1107 16.8242 34.661 16.7861 35.2086 16.8297C36.241 16.8297 36.7259 17.3445 37.0719 18.5132C38.2078 22.1989 40.6704 24.4055 44.4788 25.0456C49.9597 25.9718 55.1791 21.0548 54.6343 15.5194C54.5962 15.1516 54.5471 14.7866 54.5226 14.4188C54.302 13.4136 54.9394 12.4193 55.9446 12.1987C56.9498 11.978 57.9441 12.6154 58.1648 13.6206C58.1893 13.7378 58.2057 13.8549 58.2084 13.9748C58.9602 19.009 57.3748 23.1905 53.3485 26.2906C47.8022 30.5184 39.8777 29.4478 35.6499 23.9015C35.3039 23.4466 34.9879 22.9671 34.7046 22.4686C33.8519 20.9894 33.5795 20.9022 32.0322 21.6432C31.9532 21.6895 31.8688 21.7304 31.7843 21.7685C30.237 22.346 29.6595 23.433 29.5151 25.1056C29.3108 27.7534 28.894 30.3822 28.2729 32.9674C27.4393 36.2663 25.4208 36.852 22.6803 34.8307C19.2942 32.3627 18.6731 28.5489 21.2637 25.3099C22.3833 24.0159 23.6473 22.8554 25.0367 21.8557C25.7504 21.4416 26.1209 20.6135 25.9574 19.799ZM25.7013 25.9773L25.3172 25.8084C24.786 26.5194 24.2957 27.2604 23.8517 28.0258C23.4866 28.7695 23.6555 29.6658 24.2684 30.2269C24.6662 30.6546 25.0775 30.7745 25.1892 30.0145C25.3908 28.6497 25.5107 27.3257 25.7013 25.9773Z" fill="white"/>
<path d="M51.8476 6.01488C51.6896 4.71002 52.2317 3.41878 53.2696 2.61516C54.0406 1.92596 54.7298 1.13051 55.4952 0.427688C55.7813 0.236999 56.0973 0.0926204 56.4269 0C56.5631 0.286034 56.6584 0.588412 56.7129 0.901687C56.7511 2.00224 56.7429 3.10278 56.7129 4.20878C56.7129 4.97971 57.0534 5.32023 57.8244 5.31478H61.2186C61.5019 5.36381 61.7771 5.45643 62.0332 5.58719C61.9596 5.89502 61.837 6.1865 61.6654 6.45074C60.7637 7.40691 59.8021 8.31404 58.8868 9.25387C58.2575 9.91039 57.3477 10.2155 56.4514 10.0684C55.1983 9.8777 53.9425 10.3953 53.1879 11.4168C52.2236 12.5228 51.093 13.479 50.0797 14.555C49.7936 14.8792 49.6384 15.2987 49.6384 15.7291C49.7991 17.873 48.1891 19.739 46.048 19.897C43.9041 20.0578 42.038 18.4478 41.88 16.3066C41.8691 16.1732 41.8664 16.037 41.8719 15.9035C41.9454 13.795 43.7161 12.1442 45.8246 12.2177C45.9308 12.2204 46.0398 12.2286 46.146 12.2422C46.6854 12.3321 47.2357 12.1333 47.5953 11.7192C48.6332 10.6377 49.6765 9.55625 50.7961 8.55649C51.6106 7.86184 52.1091 7.11543 51.8476 6.01488Z" fill="white"/>
<path d="M34.3534 10.7685C34.4596 10.4388 34.5931 10.1201 34.7511 9.81229C37.4425 5.17855 42.7519 2.72683 48.0258 3.68572C49.3116 3.93362 50.0389 4.80534 49.8537 5.88682C49.6684 6.9683 48.6905 7.61392 47.3665 7.37147C43.7407 6.70678 40.0768 8.32492 38.1263 11.4549C37.9656 11.7519 37.7776 12.0325 37.5678 12.294C37.053 12.9015 36.1949 13.0894 35.473 12.7489C34.732 12.4356 34.3397 11.8336 34.3534 10.7685Z" fill="white"/>
</svg>
