<svg width="50" height="28" viewBox="0 0 50 28" fill="none" xmlns="http://www.w3.org/2000/svg">
<path fill-rule="evenodd" clip-rule="evenodd" d="M24.0075 27.8827H26.9449C26.9449 27.8827 27.8295 27.7859 28.284 27.2986C28.6986 26.8494 28.6866 26.0096 28.6866 26.0096C28.6866 26.0096 28.6295 22.0735 30.4542 21.4947C32.2788 20.9159 34.5682 25.296 37.0201 26.9807C38.8741 28.2524 40.2823 27.9742 40.2823 27.9742L46.8344 27.8827C46.8344 27.8827 50.2625 27.6719 48.6366 24.9764C48.5035 24.7569 47.6897 22.9824 43.764 19.3383C39.6551 15.5249 40.2063 16.1418 45.1549 9.54474C48.1649 5.53608 49.3692 3.07559 48.9925 2.02504C48.6348 1.0246 46.418 1.28897 46.418 1.28897L39.04 1.33389C38.712 1.2967 38.3803 1.35679 38.0862 1.50668C37.6905 1.74512 37.4348 2.29977 37.4348 2.29977C36.6706 4.28214 35.7598 6.20482 34.7099 8.05186C31.427 13.6312 30.1103 13.9266 29.5747 13.5811C28.3237 12.7724 28.6364 10.3378 28.6364 8.60651C28.6364 3.19999 29.4572 0.94512 27.0399 0.362826C26.2382 0.162393 25.6472 0.0345306 23.5962 0.00688465C20.963 -0.0207613 18.7357 0.00688467 17.4744 0.632375C16.6346 1.04361 15.9867 1.95938 16.3824 2.01467C16.8696 2.08033 17.9737 2.31359 18.5595 3.11014C19.3146 4.13823 19.2887 6.44839 19.2887 6.44839C19.2887 6.44839 19.7223 12.8122 18.2744 13.6035C17.2791 14.1495 15.9158 13.042 12.9854 7.98102C11.9914 6.21997 11.1118 4.39675 10.3521 2.52267C10.2173 2.20426 10.0088 1.92239 9.74388 1.7002C9.40088 1.47255 9.01528 1.31678 8.6104 1.24231L1.60042 1.28897C1.60042 1.28897 0.548143 1.31834 0.161099 1.77623C-0.184476 2.18228 0.133453 3.02548 0.133453 3.02548C0.133453 3.02548 5.62291 15.867 11.8381 22.3379C17.54 28.2732 24.0075 27.8827 24.0075 27.8827Z" fill="white"/>
</svg>
